<?xml version="1.0" standalone="no"?>
<!DOCTYPE svg PUBLIC "-//W3C//DTD SVG 20010904//EN"
 "http://www.w3.org/TR/2001/REC-SVG-20010904/DTD/svg10.dtd">
<svg version="1.0" xmlns="http://www.w3.org/2000/svg"
 width="160.000000pt" height="160.000000pt" viewBox="0 0 160.000000 160.000000"
 preserveAspectRatio="xMidYMid meet">

<g transform="translate(0.000000,160.000000) scale(0.100000,-0.100000)"
fill="#000000" stroke="none">
<path d="M247 1526 c-56 -20 -103 -60 -126 -109 -20 -41 -21 -59 -21 -320 l0
-277 -35 -51 c-58 -85 -65 -124 -65 -384 0 -225 1 -233 23 -266 26 -39 89 -66
130 -55 15 3 41 19 59 35 25 22 33 39 37 77 l6 49 545 0 545 0 6 -49 c9 -84
84 -132 163 -105 25 9 49 27 63 48 22 33 23 41 23 266 0 260 -7 299 -65 383
l-34 50 -3 278 c-3 266 -4 281 -25 321 -27 51 -82 96 -132 112 -59 17 -1043
15 -1094 -3z m1074 -57 c41 -14 75 -43 97 -84 14 -25 18 -70 20 -272 4 -261 4
-262 -46 -227 -19 13 -22 24 -22 86 0 85 -24 135 -80 167 -35 19 -53 21 -220
21 -186 0 -204 -3 -247 -43 l-23 -20 -22 20 c-44 40 -62 43 -248 43 -166 0
-186 -2 -220 -21 -55 -31 -74 -70 -80 -163 -5 -78 -6 -81 -37 -99 l-33 -19 0
246 c0 260 4 291 48 329 49 44 72 46 588 47 342 0 501 -3 525 -11z m-589 -398
c30 -27 33 -34 33 -93 l0 -63 -237 -3 -238 -2 0 57 c1 32 7 69 14 82 25 45 50
50 228 51 l168 0 32 -29z m523 17 c37 -17 55 -57 55 -123 l0 -55 -237 2 -238
3 0 63 c0 59 3 66 33 93 l32 29 165 0 c106 0 173 -4 190 -12z m126 -271 c105
-54 159 -149 159 -279 l0 -58 -166 -2 c-148 -3 -168 -5 -178 -21 -9 -15 -7
-21 8 -33 15 -11 56 -14 178 -14 l158 0 0 -60 0 -60 -740 0 -740 0 0 60 0 60
428 0 c320 0 431 3 440 12 17 17 15 45 -4 52 -9 3 -207 6 -440 6 l-424 0 0 58
c0 130 54 225 159 279 l63 33 518 0 518 0 63 -33z m-1191 -621 c0 -25 -7 -40
-26 -55 -15 -12 -33 -21 -41 -21 -25 0 -63 47 -63 80 l0 30 65 0 65 0 0 -34z
m1350 4 c0 -33 -38 -80 -63 -80 -8 0 -26 9 -41 21 -19 15 -26 30 -26 55 l0 34
65 0 65 0 0 -30z"/>
<path d="M1053 473 c-18 -6 -16 -50 1 -56 8 -3 22 1 33 8 28 21 -1 62 -34 48z"/>
</g>
</svg>
