<?xml version="1.0" standalone="no"?>
<!DOCTYPE svg PUBLIC "-//W3C//DTD SVG 20010904//EN"
 "http://www.w3.org/TR/2001/REC-SVG-20010904/DTD/svg10.dtd">
<svg version="1.0" xmlns="http://www.w3.org/2000/svg"
 width="160.000000pt" height="160.000000pt" viewBox="0 0 160.000000 160.000000"
 preserveAspectRatio="xMidYMid meet">

<g transform="translate(0.000000,160.000000) scale(0.100000,-0.100000)"
fill="#000000" stroke="none">
<path d="M760 800 l0 -801 63 3 62 3 0 795 0 795 -62 3 -63 3 0 -801z m90 -1
l0 -770 -27 3 -28 3 -3 755 c-1 415 0 761 3 768 2 6 16 12 30 12 l25 0 0 -771z"/>
<path d="M192 1474 c-98 -50 -109 -202 -19 -266 41 -29 114 -35 161 -13 102
49 115 201 23 267 -40 29 -121 34 -165 12z m123 -28 c40 -17 75 -68 75 -111 0
-72 -74 -134 -145 -121 -114 22 -138 177 -35 228 43 22 60 22 105 4z"/>
<path d="M1240 1468 c-55 -38 -75 -73 -75 -133 0 -150 187 -212 279 -92 76
100 2 247 -124 247 -32 0 -57 -7 -80 -22z m130 -23 c77 -40 95 -129 38 -190
-40 -44 -90 -55 -140 -31 -70 33 -91 127 -41 186 42 50 90 62 143 35z"/>
<path d="M74 1131 c-12 -5 -31 -22 -43 -37 -20 -25 -21 -38 -21 -226 0 -198 0
-199 25 -223 13 -14 33 -25 45 -25 20 0 20 -5 20 -222 0 -241 4 -263 53 -286
22 -11 31 -10 57 3 16 8 31 17 32 18 1 1 5 104 8 230 7 304 23 305 30 2 3
-126 7 -231 8 -233 1 -2 16 -9 33 -16 40 -17 64 -11 89 22 19 23 20 41 20 253
0 224 0 229 20 229 12 0 32 11 45 25 25 24 25 25 25 224 l0 201 -29 32 -29 33
-184 2 c-100 1 -193 -2 -204 -6z m382 -39 c29 -19 34 -56 34 -229 0 -185 -4
-203 -42 -203 -16 0 -18 15 -20 178 -3 149 -5 177 -18 177 -13 0 -15 -56 -18
-432 l-2 -433 -25 -6 c-13 -3 -29 -3 -34 1 -7 4 -11 80 -11 218 0 227 -6 259
-48 265 -49 7 -52 -4 -52 -235 0 -129 -4 -222 -10 -234 -12 -22 -43 -25 -59
-6 -7 10 -12 145 -13 438 -3 369 -5 424 -18 424 -13 0 -15 -28 -18 -177 -2
-169 -3 -178 -22 -178 -34 0 -40 32 -40 213 0 161 2 176 21 201 l20 26 182 0
c100 0 187 -4 193 -8z"/>
<path d="M1159 1125 c-35 -19 -43 -40 -80 -221 -37 -177 -34 -207 17 -235 26
-14 27 -24 7 -106 -5 -21 -2 -23 40 -23 l44 0 6 -72 c4 -40 9 -128 13 -196 8
-137 19 -166 67 -163 34 2 60 2 93 0 51 -3 57 16 70 213 7 101 13 191 13 201
1 13 10 17 40 17 22 0 42 4 45 8 2 4 0 28 -5 53 -10 45 -9 47 26 82 20 20 35
45 35 58 0 31 -58 306 -72 342 -19 48 -52 57 -200 57 -94 -1 -140 -5 -159 -15z
m320 -38 c6 -8 26 -87 45 -177 35 -167 35 -201 0 -214 -15 -6 -13 -12 -49 159
-14 66 -27 130 -30 143 -6 23 -35 31 -35 10 0 -11 67 -335 85 -415 l5 -23
-180 0 c-99 0 -180 2 -180 3 0 2 20 99 45 216 25 116 45 216 45 221 0 17 -28
11 -34 -7 -3 -10 -17 -74 -31 -143 -38 -181 -34 -171 -55 -160 -10 6 -21 18
-24 28 -8 23 59 339 75 358 16 20 301 20 318 1z m-179 -742 c0 -168 -2 -196
-16 -202 -8 -3 -20 -1 -26 5 -10 10 -38 379 -29 388 2 2 19 4 38 4 l33 0 0
-195z m105 43 c-10 -213 -15 -243 -40 -243 -19 0 -20 8 -23 198 l-2 197 36 0
37 0 -8 -152z"/>
</g>
</svg>
