<?xml version="1.0" standalone="no"?>
<!DOCTYPE svg PUBLIC "-//W3C//DTD SVG 20010904//EN"
 "http://www.w3.org/TR/2001/REC-SVG-20010904/DTD/svg10.dtd">
<svg version="1.0" xmlns="http://www.w3.org/2000/svg"
 width="160.000000pt" height="160.000000pt" viewBox="0 0 160.000000 160.000000"
 preserveAspectRatio="xMidYMid meet">

<g transform="translate(0.000000,160.000000) scale(0.100000,-0.100000)"
fill="#000000" stroke="none">
<path d="M936 1581 c-36 -24 -55 -56 -56 -93 0 -20 -8 -32 -30 -43 -32 -17
-50 -43 -50 -74 0 -19 -6 -21 -75 -21 -68 0 -79 -3 -101 -25 -21 -21 -25 -33
-22 -73 l3 -47 198 -3 197 -2 0 25 0 25 -176 0 -175 0 3 23 3 22 245 0 245 0
3 -22 c3 -21 0 -23 -47 -23 -48 0 -51 -2 -51 -25 0 -26 1 -26 73 -23 l72 3 3
47 c3 40 -1 52 -22 73 -22 22 -33 25 -101 25 -69 0 -75 2 -75 21 0 31 -17 57
-50 74 -26 13 -28 18 -20 46 16 56 26 58 246 59 188 0 202 -1 222 -20 12 -12
22 -30 22 -40 0 -11 0 -125 1 -252 l0 -233 -61 -3 c-56 -3 -60 -5 -60 -27 0
-22 4 -24 61 -27 l60 -3 0 -170 0 -170 -35 -3 c-33 -3 -36 -1 -36 22 0 21 -5
26 -25 26 -24 0 -25 -2 -25 -75 0 -73 1 -75 25 -75 20 0 25 5 25 26 0 23 3 25
36 22 l35 -3 0 -170 c0 -160 -1 -170 -20 -177 -11 -4 -36 -38 -56 -78 l-35
-70 -655 0 -655 0 0 -25 0 -25 800 0 c755 0 800 1 800 18 0 29 -81 173 -101
180 -19 7 -20 21 -20 377 l0 370 36 3 c29 3 35 7 35 27 0 20 -6 24 -35 27
l-35 3 -3 250 c-2 275 -5 290 -62 325 -30 18 -51 20 -241 20 -190 0 -212 -2
-238 -19z m12 -208 c3 -21 0 -23 -47 -23 -43 0 -51 3 -51 18 0 28 10 33 55 30
33 -2 41 -7 43 -25z m560 -1268 c12 -25 22 -48 22 -50 0 -3 -36 -5 -80 -5 -44
0 -80 2 -80 5 0 2 10 25 22 50 20 41 25 45 58 45 33 0 38 -4 58 -45z"/>
<path d="M169 1447 c-157 -106 -157 -438 0 -544 46 -31 116 -31 162 0 157 106
157 438 0 544 -46 31 -116 31 -162 0z m149 -52 c16 -13 40 -48 53 -77 34 -76
34 -210 0 -286 -62 -138 -180 -138 -242 0 -34 76 -34 210 0 286 31 68 71 102
121 102 26 0 48 -8 68 -25z"/>
<path d="M212 1260 c-39 -34 -72 -65 -72 -69 0 -5 7 -14 15 -21 12 -10 26 -2
82 45 37 32 69 61 71 64 1 4 -3 15 -11 24 -11 16 -19 13 -85 -43z"/>
<path d="M263 1137 c-34 -29 -65 -56 -68 -59 -4 -3 -2 -16 5 -28 11 -21 11
-21 48 9 104 82 117 98 103 115 -7 9 -16 16 -20 16 -3 -1 -34 -24 -68 -53z"/>
<path d="M624 1135 c-4 -9 -2 -21 4 -27 16 -16 47 -5 47 17 0 26 -42 34 -51
10z"/>
<path d="M724 1137 c-3 -8 -4 -30 -2 -49 2 -28 7 -33 28 -33 23 0 25 4 25 45
0 39 -3 45 -23 48 -13 2 -24 -3 -28 -11z"/>
<path d="M824 1135 c-4 -9 -2 -21 4 -27 16 -16 47 -5 47 17 0 26 -42 34 -51
10z"/>
<path d="M924 1137 c-3 -8 -4 -30 -2 -49 2 -28 7 -33 28 -33 23 0 25 4 25 45
0 39 -3 45 -23 48 -13 2 -24 -3 -28 -11z"/>
<path d="M1024 1135 c-4 -9 -2 -21 4 -27 16 -16 47 -5 47 17 0 26 -42 34 -51
10z"/>
<path d="M1124 1137 c-3 -8 -4 -30 -2 -49 2 -28 7 -33 28 -33 23 0 25 4 25 45
0 39 -3 45 -23 48 -13 2 -24 -3 -28 -11z"/>
<path d="M624 1037 c-3 -8 -4 -30 -2 -49 2 -28 7 -33 28 -33 23 0 25 4 25 45
0 39 -3 45 -23 48 -13 2 -24 -3 -28 -11z"/>
<path d="M824 1037 c-3 -8 -4 -30 -2 -49 2 -28 7 -33 28 -33 23 0 25 4 25 45
0 39 -3 45 -23 48 -13 2 -24 -3 -28 -11z"/>
<path d="M1024 1037 c-3 -8 -4 -30 -2 -49 2 -28 7 -33 28 -33 23 0 25 4 25 45
0 39 -3 45 -23 48 -13 2 -24 -3 -28 -11z"/>
<path d="M724 985 c-4 -9 -2 -21 4 -27 16 -16 47 -5 47 17 0 26 -42 34 -51 10z"/>
<path d="M924 985 c-4 -9 -2 -21 4 -27 16 -16 47 -5 47 17 0 26 -42 34 -51 10z"/>
<path d="M1124 985 c-4 -9 -2 -21 4 -27 16 -16 47 -5 47 17 0 26 -42 34 -51
10z"/>
<path d="M624 885 c-4 -9 -2 -21 4 -27 16 -16 47 -5 47 17 0 26 -42 34 -51 10z"/>
<path d="M724 887 c-3 -8 -4 -30 -2 -49 2 -28 7 -33 28 -33 23 0 25 4 25 45 0
39 -3 45 -23 48 -13 2 -24 -3 -28 -11z"/>
<path d="M824 885 c-4 -9 -2 -21 4 -27 16 -16 47 -5 47 17 0 26 -42 34 -51 10z"/>
<path d="M924 887 c-3 -8 -4 -30 -2 -49 2 -28 7 -33 28 -33 23 0 25 4 25 45 0
39 -3 45 -23 48 -13 2 -24 -3 -28 -11z"/>
<path d="M1024 885 c-4 -9 -2 -21 4 -27 16 -16 47 -5 47 17 0 26 -42 34 -51
10z"/>
<path d="M1124 887 c-3 -8 -4 -30 -2 -49 2 -28 7 -33 28 -33 23 0 25 4 25 45
0 39 -3 45 -23 48 -13 2 -24 -3 -28 -11z"/>
<path d="M624 787 c-3 -8 -4 -41 -2 -73 3 -55 5 -59 28 -59 24 0 25 2 25 70 0
65 -2 70 -23 73 -12 2 -24 -3 -28 -11z"/>
<path d="M824 787 c-3 -8 -4 -41 -2 -73 3 -55 5 -59 28 -59 24 0 25 2 25 70 0
65 -2 70 -23 73 -12 2 -24 -3 -28 -11z"/>
<path d="M1024 787 c-3 -8 -4 -41 -2 -73 3 -55 5 -59 28 -59 24 0 25 2 25 70
0 65 -2 70 -23 73 -12 2 -24 -3 -28 -11z"/>
<path d="M450 725 l0 -25 -225 0 -225 0 0 -25 c0 -20 5 -25 25 -25 l25 0 2
-247 3 -248 170 0 170 0 3 248 2 247 25 0 c20 0 25 -5 25 -25 0 -20 5 -25 25
-25 24 0 25 2 25 75 0 73 -1 75 -25 75 -20 0 -25 -5 -25 -25z m-100 -200 l0
-125 -125 0 -125 0 0 125 0 125 125 0 125 0 0 -125z m-2 -186 c-5 -14 -241
-14 -246 0 -3 8 37 11 123 11 86 0 126 -3 123 -11z m0 -103 l3 -36 -125 0
-126 0 0 33 c0 19 2 36 4 38 2 2 58 3 123 2 l118 -2 3 -35z"/>
<path d="M724 735 c-4 -9 -2 -21 4 -27 16 -16 47 -5 47 17 0 26 -42 34 -51 10z"/>
<path d="M924 735 c-4 -9 -2 -21 4 -27 16 -16 47 -5 47 17 0 26 -42 34 -51 10z"/>
<path d="M1124 735 c-4 -9 -2 -21 4 -27 16 -16 47 -5 47 17 0 26 -42 34 -51
10z"/>
</g>
</svg>
