<?xml version="1.0" encoding="UTF-8"?> <!-- Creator: CorelDRAW X8 --> <svg xmlns="http://www.w3.org/2000/svg" xmlns:xlink="http://www.w3.org/1999/xlink" xml:space="preserve" width="77.2mm" height="77.2mm" version="1.0" style="shape-rendering:geometricPrecision; text-rendering:geometricPrecision; image-rendering:optimizeQuality; fill-rule:evenodd; clip-rule:evenodd" viewBox="0 0 7720 7720"> <defs> <style type="text/css"> <![CDATA[ .str0 {stroke:#FEFEFE;stroke-width:7.62} .fil1 {fill:#FEFEFE;fill-rule:nonzero} .fil2 {fill:#D02429;fill-rule:nonzero} .fil0 {fill:#303F6B;fill-rule:nonzero} ]]> </style> </defs> <g id="Katman_x0020_1"> <metadata id="CorelCorpID_0Corel-Layer"></metadata> <path class="fil0 str0" d="M7388 3860c0,1948 -1580,3528 -3528,3528 -1948,0 -3528,-1580 -3528,-3528 0,-1948 1580,-3528 3528,-3528 1948,0 3528,1580 3528,3528l0 0z"></path> <path class="fil1" d="M6743 5893l-6240 -3120c110,-341 271,-659 474,-946l6240 3120c-110,341 -271,659 -474,946z"></path> <path class="fil2" d="M562 2605l3140 1570 158 -315 -3156 -1578c-52,105 -100,213 -142,323z"></path> <path class="fil2" d="M4018 3545l-158 315 3156 1578c52,-105 100,-213 142,-323l-3140 -1570z"></path> <path class="fil1" d="M7217 2773l-6240 3120c-203,-287 -364,-605 -474,-946l6240 -3120c203,287 364,605 474,946z"></path> <path class="fil2" d="M878 5745l3140 -1570 -158 -315 -3156 1578c53,105 111,208 174,307z"></path> <path class="fil2" d="M3702 3545l158 315 3156 -1578c-53,-105 -111,-208 -174,-308l-3140 1571z"></path> <path class="fil1" d="M7277 2978l-2535 0 0 -2535c-282,-72 -577,-111 -882,-111 -305,0 -600,39 -882,111l0 2535 -2535 0c-72,282 -111,577 -111,882 0,305 39,600 111,882l2535 0 0 2535c282,72 577,111 882,111 305,0 600,-39 882,-111l0 -2535 2535 0c72,-282 111,-577 111,-882l0 0c0,-305 -39,-600 -111,-882z"></path> <path class="fil2" d="M7348 3331l-2959 0 0 -2959c-172,-26 -349,-40 -529,-40 -180,0 -357,14 -529,40l0 2959 -2959 0c-26,172 -40,349 -40,529 0,180 14,357 40,529l2959 0 0 2959c172,26 349,40 529,40 180,0 357,-14 529,-40l0 -2959 2959 0c26,-172 40,-349 40,-529l0 0c0,-180 -14,-357 -40,-529z"></path> </g> </svg> 