<?xml version="1.0" encoding="UTF-8"?> <!-- Creator: CorelDRAW X8 --> <svg xmlns="http://www.w3.org/2000/svg" xmlns:xlink="http://www.w3.org/1999/xlink" xml:space="preserve" width="77.2mm" height="77.2mm" version="1.0" style="shape-rendering:geometricPrecision; text-rendering:geometricPrecision; image-rendering:optimizeQuality; fill-rule:evenodd; clip-rule:evenodd" viewBox="0 0 7720 7720"> <defs> <style type="text/css"> <![CDATA[ .fil1 {fill:#FEFEFE;fill-rule:nonzero} .fil0 {fill:#E31E29;fill-rule:nonzero} ]]> </style> </defs> <g id="Katman_x0020_1"> <metadata id="CorelCorpID_0Corel-Layer"></metadata> <path class="fil0" d="M7361 3861c0,1933 -1567,3500 -3500,3500 -1933,0 -3500,-1567 -3500,-3500 0,-1933 1567,-3500 3500,-3500 1933,0 3500,1567 3500,3500l0 0z"></path> <polygon class="fil1" points="6119,3367 5538,3556 5179,3062 5179,3672 4599,3861 5179,4050 5179,4660 5538,4166 6119,4355 5760,3861 "></polygon> <path class="fil1" d="M3703 5205c-742,0 -1344,-602 -1344,-1344 0,-742 602,-1344 1344,-1344 398,0 755,172 1001,447 -298,-471 -823,-783 -1421,-783 -928,0 -1680,752 -1680,1680 0,928 752,1680 1680,1680 598,0 1123,-313 1421,-783 -246,274 -603,447 -1001,447z"></path> </g> </svg> 